<?xml version="1.0" encoding="utf-8"?>
<!-- Generator: Adobe Illustrator 23.0.3, SVG Export Plug-In . SVG Version: 6.00 Build 0)  -->
<svg version="1.1" id="Layer_1" xmlns="http://www.w3.org/2000/svg" xmlns:xlink="http://www.w3.org/1999/xlink" x="0px" y="0px"
	 viewBox="0 0 730.7 730.9" style="enable-background:new 0 0 730.7 730.9;" xml:space="preserve">
<style type="text/css">
	.st0{fill:url(#SVGID_1_);}
	.st1{fill:#FFFFFF;}
	.st2{fill:#020202;}
</style>
<g>
	
		<linearGradient id="SVGID_1_" gradientUnits="userSpaceOnUse" x1="42.4" y1="367.8" x2="688.4" y2="367.8" gradientTransform="matrix(1 0 0 -1 0 733.2)">
		<stop  offset="0" style="stop-color:#ED1E79"/>
		<stop  offset="1" style="stop-color:#0000FF"/>
	</linearGradient>
	<circle class="st0" cx="365.4" cy="365.4" r="323"/>
	<g>
		<path d="M365.4,730.9c-49.3,0-97.2-9.7-142.2-28.7c-43.5-18.4-82.6-44.8-116.2-78.3s-59.9-72.6-78.3-116.2
			C9.6,462.6,0,414.8,0,365.5s9.7-97.2,28.7-142.2c18.4-43.5,44.8-82.6,78.3-116.2s72.6-60,116.1-78.4C268.2,9.6,316,0,365.3,0
			c49.3,0,97.2,9.7,142.2,28.7C551,47.1,590.1,73.5,623.7,107c33.6,33.6,59.9,72.6,78.3,116.2c19.1,45.1,28.7,92.9,28.7,142.2
			s-9.6,97.2-28.6,142.3c-18.4,43.5-44.8,82.6-78.3,116.2c-33.6,33.6-72.6,59.9-116.2,78.3C462.5,721.2,414.7,730.9,365.4,730.9z
			 M365.4,28.9c-45.4,0-89.5,8.9-131,26.4c-40.1,16.9-76.1,41.2-107,72.1s-55.2,66.9-72.1,107c-17.5,41.5-26.4,85.6-26.4,131
			s8.9,89.5,26.4,131c16.9,40.1,41.2,76.1,72.1,107s66.9,55.2,107,72.1c41.5,17.5,85.6,26.4,131,26.4s89.5-8.9,131-26.4
			c40.1-16.9,76.1-41.2,107-72.1c30.9-30.9,55.2-66.9,72.1-107c17.5-41.5,26.4-85.6,26.4-131s-8.9-89.5-26.4-131
			c-16.9-40.1-41.2-76.1-72.1-107c-30.9-30.9-66.9-55.2-107-72.1C454.9,37.8,410.8,28.9,365.4,28.9z"/>
	</g>
	<g>
		<path d="M423.6,87.9c5.2,0.6,10.3,1.4,15.4,2.3c2.4,0.4,4.9,0.9,7.3,1.4c1.2,0.3,2.4,0.5,3.6,0.8c0.6,0.1,1.2,0.3,1.8,0.4
			c0.2,0.1,2.6,0.6,1.3,0.3c9.8,2.5,19.5,5.5,29,9.2c19.2,7.3,37.4,17,54.4,28.5c1,0.7,2.1,1.4,3.1,2.1c-1.3-0.9,0.4,0.3,0.6,0.4
			c0.5,0.4,1,0.7,1.5,1.1c2,1.5,4,2.9,6,4.5c4.1,3.2,8.2,6.4,12.1,9.8c7.7,6.6,15.1,13.7,22,21.1c3.5,3.8,7,7.7,10.3,11.7
			c1.6,1.9,3.2,3.8,4.7,5.8c1.3,1.6-1-1.3,0.3,0.4c0.4,0.5,0.8,1,1.1,1.5c0.9,1.2,1.8,2.3,2.6,3.5c6,8.2,11.6,16.7,16.6,25.5
			c2.9,5,5.6,10.1,8.1,15.4c0.6,1.3,1.3,2.6,1.9,3.9c0.2,0.4,1.1,2.3,0.1,0.3c0.3,0.6,0.5,1.1,0.8,1.7c1.2,2.6,2.3,5.3,3.4,8
			c4.4,10.8,7.9,21.8,10.7,33.1c0.9,3.6,5.3,6.7,8.5,3.8c3.7-3.3,3.9-8.7,2.8-13.1c-5.1-20.7-13-40.7-23.1-59.6
			c-10-18.7-22.3-36.1-36.3-52c-13.8-15.7-29.3-29.8-46.3-42c-17.2-12.3-35.5-22.9-55.1-31c-19.5-8.1-40.1-13.9-61-17
			c-2.6-0.4-5.1-0.7-7.7-1c-4.4-0.5-6.7,6-6.7,9.4C417.6,81.9,418.9,87.4,423.6,87.9L423.6,87.9z"/>
	</g>
	<g>
		<path d="M344.7,649.7c-5.2,0.2-10.4,0.2-15.6,0c-2.5-0.1-5-0.2-7.5-0.4c-1.2-0.1-2.5-0.2-3.7-0.3c-0.6,0-1.2-0.1-1.9-0.2
			c-0.2,0-2.7-0.3-1.4-0.1c-10.1-1-20.1-2.6-30-4.9c-20-4.5-39.5-11.4-58-20.3c-1.1-0.5-2.2-1.1-3.4-1.6c1.4,0.7-0.5-0.2-0.6-0.3
			c-0.6-0.3-1.1-0.6-1.7-0.9c-2.2-1.2-4.4-2.3-6.6-3.5c-4.5-2.5-9-5.2-13.4-7.9c-8.6-5.4-16.9-11.3-24.9-17.7
			c-4.1-3.2-8-6.6-11.9-10c-1.9-1.7-3.7-3.3-5.5-5.1c-1.5-1.4,1.1,1.1-0.4-0.3c-0.4-0.4-0.9-0.9-1.3-1.3c-1-1-2.1-2-3.1-3.1
			c-7.1-7.2-13.9-14.8-20.2-22.8c-3.6-4.6-7-9.2-10.3-14c-0.8-1.2-1.6-2.4-2.4-3.6c-0.2-0.3-1.4-2.1-0.2-0.2c-0.4-0.5-0.7-1-1-1.6
			c-1.6-2.4-3.1-4.9-4.5-7.4c-5.9-10-11-20.5-15.4-31.2c-1.4-3.5-6.2-5.9-9-2.5c-3.2,3.8-2.6,9.1-0.9,13.4
			c8.1,19.8,18.8,38.4,31.5,55.6c12.6,17,27.3,32.5,43.4,46.2c15.9,13.5,33.3,25.2,51.9,34.8c18.8,9.7,38.5,17.5,59,22.7
			s41.7,7.9,62.9,8c2.6,0,5.2,0,7.8-0.1c4.5-0.1,5.8-6.9,5.3-10.3C351.5,654.8,349.4,649.5,344.7,649.7L344.7,649.7z"/>
	</g>
	<g>
		<g>
			<g>
				<path d="M442.3,229.8c3.2-0.4,5.9-0.1,8,0.8c2.1,1,3.7,2.4,4.9,4.4c1.1,2,1.9,4.4,2.2,7.2c0.3,2.8,0.3,5.9,0,9.3
					s-0.9,6.9-1.7,10.7c-0.8,3.7-1.8,7.5-3,11.3c-2.1,6.6-4.4,12.7-7.2,18.2c-2.7,5.6-5.8,10.4-9.1,14.5s-6.9,7.4-10.7,9.8
					s-7.8,3.8-11.9,4.2c-4.5,0.3-7.9-0.7-10.2-3.1s-3.8-5.8-4.4-10.1c-0.6-4.3-0.4-9.4,0.5-15.2c0.9-5.8,2.5-11.8,4.6-18
					c2-6,4.3-11.6,6.9-16.7c2.6-5.1,5.5-9.6,8.6-13.5c3.2-3.9,6.6-7,10.4-9.4C434,231.7,438,230.3,442.3,229.8z M414.9,306.6
					c-0.9,2.6-1.4,4.7-1.7,6.4c-0.2,1.7-0.2,2.9,0.1,3.7c0.3,0.8,0.7,1.1,1.4,1c0.6-0.2,1.4-0.8,2.3-2l0,0c1-1.6,2.1-3.9,3.1-6.9
					l22.5-66.8c0.4-1,0.7-2,0.9-3c0.2-0.9,0.4-1.9,0.6-2.8l0,0c0.1-1.6-0.1-2.8-0.5-3.4c-0.4-0.6-1-0.7-1.8-0.2
					c-0.7,0.5-1.6,1.6-2.5,3.3c-1,1.7-1.9,4-2.8,7L414.9,306.6z"/>
				<path d="M487.5,306.8c-3.4,0.6-5.8-0.4-7.4-2.9c-1.5-2.5-2-6.2-1.6-11l0,0c-2.2,5.4-4.7,9.5-7.4,12.5s-5.9,4.8-9.6,5.6
					c-2.5,0.6-4.5,0.2-5.9-1c-1.4-1.3-2.4-3.2-2.9-5.9c-0.5-2.7-0.4-5.9,0.2-9.8c0.6-3.9,1.6-8.2,3.2-12.9l11.5-35.3
					c0.1-0.4,0.3-1,0.6-1.9s0.6-2,0.9-3.2c0.3-1.2,0.6-2.5,0.8-3.8c0.3-1.3,0.4-2.6,0.5-3.9s0-2.3-0.2-3.3c-0.2-0.9-0.5-1.6-1-2.1
					l0,0l4.2-0.7c2.6-0.4,4.7-0.3,6.3,0.5c1.6,0.7,2.8,1.8,3.7,3.2c0.8,1.4,1.3,3.2,1.5,5.2c0.2,2,0.2,4.1-0.1,6.4
					c-0.2,2.2-0.6,4.4-1.2,6.7c-0.6,2.2-1.1,4.3-1.8,6.2l-11.1,35c-0.3,0.9-0.6,2-1,3.3s-0.7,2.5-0.9,3.6s-0.2,2-0.1,2.8
					c0.1,0.8,0.5,1.1,1.3,1c1-0.1,2-1,3.1-2.7s2.2-3.7,3.3-6.1s2.1-5,3.1-7.7c1-2.8,1.9-5.3,2.6-7.6l11.8-35.1
					c0.1-0.4,0.3-1,0.6-1.9s0.6-2,0.9-3.2c0.3-1.2,0.6-2.5,0.9-3.8c0.3-1.3,0.5-2.6,0.5-3.9c0.1-1.2,0-2.3-0.2-3.3
					c-0.2-0.9-0.6-1.6-1.1-2.1l0,0l4.2-0.7c2.6-0.4,4.7-0.3,6.3,0.5c1.6,0.7,2.9,1.8,3.7,3.3c0.9,1.5,1.4,3.2,1.6,5.2
					c0.2,2,0.2,4.1-0.1,6.4c-0.2,2.2-0.6,4.5-1.1,6.7s-1.1,4.3-1.7,6.2l-11.7,35.3c-1.1,3.5-1.8,6.1-2,7.7s-0.1,2.4,0.5,2.5
					c0.3,0.1,0.9-0.1,1.8-0.5c0.9-0.4,2-1.1,3.4-2.2c1.3-1.1,2.8-2.6,4.3-4.6c1.6-1.9,3.2-4.5,4.8-7.6l0,0c-1.5,4.9-3.2,9-5.2,12.2
					s-4.1,5.7-6.2,7.6c-2.1,1.9-4.1,3.2-6,4C490.3,306.1,488.8,306.6,487.5,306.8z"/>
				<path d="M416.1,208.9c-0.4-2-1.1-3.7-2.2-5.1c-1-1.4-2.4-2.5-4.1-3.1c-1.7-0.7-3.9-0.8-6.5-0.4l-4.2,0.7l0,0
					c0.8,0.7,1.3,1.9,1.3,3.6c0,1.7-0.2,3.6-0.5,5.6c-0.4,2-0.8,3.8-1.3,5.6c-0.5,1.7-0.9,2.9-1.1,3.4l-1.9,5.8
					c-1.3,3.7-2.9,7.8-4.7,12.3s-3.6,9.1-5.6,13.7s-3.9,9.1-5.9,13.4s-3.8,8.2-5.6,11.6s-3.3,6.1-4.7,8.2s-2.5,3.1-3.3,3.2
					c-0.5,0.1-0.9-0.1-1.2-0.4c-0.3-0.4-0.5-1-0.6-1.9c0-0.9,0.1-2.2,0.4-3.8c0.3-1.6,0.9-3.6,1.7-6.1l10.7-33.3
					c0.9-2.7,1.6-5.7,2.3-8.8s1.1-6.2,1.2-9.2c0.1-3-0.1-5.8-0.6-8.5s-1.6-4.9-3.2-6.8c-1.6-1.8-3.8-3.1-6.5-3.9
					c-2.8-0.7-6.3-0.7-10.6,0.1c-2.1,0.4-4.4,1.2-7,2.4c-2.6,1.1-5.3,2.6-8.1,4.5s-5.6,4.2-8.5,6.8c-2.8,2.7-5.5,5.7-7.9,9.1
					c-2.4,3.4-4.6,7.3-6.4,11.5c-1.9,4.3-3.3,8.9-4.2,14c-1,5.5-1,10.1-0.1,13.7c0.9,3.6,2.5,6.2,4.8,7.8c2.3,1.6,5.2,2.4,8.6,2.1
					c3.5-0.2,7.3-1.4,11.5-3.6l0,0c-2-1.3-3.4-3.1-4.3-5.4c-0.9-2.4-1.4-5-1.5-8c-0.1-3,0.2-6.2,0.8-9.6c0.7-3.4,1.6-6.9,2.8-10.4
					s2.7-6.8,4.4-10.1c1.7-3.2,3.5-6.2,5.4-8.8c1.9-2.6,4-4.9,6.1-6.7c2.2-1.8,4.3-3,6.4-3.6c1.7-0.4,2.7-0.1,3.2,1s0.6,2.7,0.3,4.6
					c-0.2,2-0.7,4.2-1.5,6.7c-0.7,2.5-1.5,4.9-2.3,7.2c-2.2,6.5-4,12-5.5,16.4s-2.7,8-3.6,10.8c-0.9,2.8-1.6,4.9-2.1,6.3
					s-0.8,2.5-1,3.1s-0.3,0.9-0.4,1c-0.1,0-0.1,0.1-0.1,0.1c0,0.1-0.1,0.3-0.2,0.6c-0.1,0.3-0.3,1.1-0.8,2.2l0,0
					c-0.6,1.9-1.1,4-1.5,6c-0.5,2.1-0.8,4.1-1,6.1s-0.2,3.9,0,5.6c0.2,1.8,0.7,3.3,1.5,4.6c2.6,3.9,7,5.4,13.1,4.5
					c1.5-0.2,3.1-1,4.6-2.3s3.1-2.9,4.6-5c1.5-2,3.1-4.4,4.5-7c1.5-2.6,2.9-5.2,4.3-8l0,0c-2.2,6.4-4.5,12.7-6.9,18.9
					c-2.4,6.3-4.7,12.3-7,18s-4.6,11-6.9,15.9c-0.9,1.9-1.7,3.6-2.5,5.3l0,0c0,1.2-0.1,2.4-0.2,3.7c-0.3,3-0.8,6-1.5,9.1
					s-1.5,5.9-2.3,8.4l-0.9,2.7l0,0c2.1-0.9,4.1-2,6.1-3.4c3.9-2.7,7.6-6.5,11.1-11.4c3.5-4.8,7-10.8,10.4-17.8s7-15.3,10.7-24.7
					c3.7-9.4,7.6-20.1,11.8-32.1s8.8-25.3,13.9-40c0.6-1.9,1.2-4,1.6-6.2c0.4-2.2,0.7-4.5,0.8-6.6
					C416.7,212.9,416.5,210.8,416.1,208.9z"/>
				<g>
					<path d="M290.6,321.3L290.6,321.3c0.4-0.7,0.8-1.4,1.2-2.1c1.8-3.3,3.2-7.4,4.3-12.3l0,0c-1.4,3.2-2.8,5.8-4.2,7.8
						c-1.4,2.1-2.7,3.7-4,4.9c-0.2,0.2-0.4,0.4-0.6,0.5c0,0.1,0,0.1,0.1,0.2C288.5,320.6,289.6,320.9,290.6,321.3z"/>
					<path d="M303.7,220.4c-0.3-2-1-3.7-1.9-5c-1-1.4-2.3-2.4-3.9-3c-1.7-0.6-3.8-0.6-6.4,0l-4.2,0.9l0,0c0.9,0.6,1.4,1.8,1.5,3.5
						c0.1,1.7,0.1,3.6-0.2,5.6c-0.2,2-0.5,3.9-0.9,5.6c-0.4,1.8-0.7,2.9-0.8,3.5l-18.5,72.8c-0.6,2.6-1.2,5-1.5,7.3l0,0
						c2.6,0.3,4.9,0.8,7.1,1.4c3.3,0.9,6.2,2.2,8.7,3.7l0,0c0.2-1.2,0.6-2.7,1-4.4l18.3-72.5c0.5-1.9,0.9-4,1.3-6.3
						c0.4-2.3,0.6-4.5,0.7-6.8C304.1,224.5,304,222.4,303.7,220.4z"/>
					<path d="M258.6,311.2L258.6,311.2l16.5-65.4c0.5-1.9,0.9-4,1.3-6.3c0.4-2.3,0.6-4.5,0.7-6.8c0.1-2.2,0-4.3-0.4-6.3
						c-0.3-2-1-3.7-1.9-5c-1-1.4-2.3-2.4-3.9-3c-1.7-0.6-3.8-0.6-6.4,0l-4.2,0.9l0,0c0.9,0.6,1.4,1.8,1.5,3.5
						c0.1,1.7,0.1,3.6-0.2,5.6c-0.2,2-0.5,3.9-0.9,5.6c-0.4,1.8-0.7,2.9-0.8,3.5l-18.5,72.8c-0.2,0.9-0.4,1.8-0.6,2.6l0,0
						c5.2-1,10.1-1.6,14.5-1.7C256.4,311.2,257.5,311.2,258.6,311.2z"/>
				</g>
				<g>
					<path d="M146.8,363.4c4.3-0.7,8.4-2.3,12-4.7c3.7-2.4,7.1-5.5,10.3-9.2c3.2-3.7,6.2-8,9-12.7c2.8-4.8,5.5-9.9,8-15.3
						c2.6-5.4,5-11.1,7.4-17s4.8-11.8,7.3-17.8l0,0c1.2,1.7,2.1,3.7,2.9,5.8c0.8,2.1,1.4,4.4,1.8,6.7c0.4,2.4,0.7,4.7,0.8,7.2
						c0.1,2.4,0,4.8-0.2,7.1l0,0c-0.7,4.2-1.2,8.2-1.5,11.9l0,0c7.8-4.1,16-7.3,24.4-9.6l0,0c0.3-1.2,0.5-2.4,0.8-3.6
						c1.2-5.2,2.6-11,4.2-17.5c1.6-6.4,3.4-13.3,5.4-20.6c1.9-7.3,4-14.7,6.1-22.3c2.1-7.6,4.4-15.1,6.7-22.7
						c2.3-7.5,4.7-14.7,7.1-21.6l0,0c-4.4,0.3-8.6,1.4-12.6,3.3c-4,2-7.8,4.5-11.5,7.7c-3.6,3.2-7.1,6.8-10.5,11
						c-3.3,4.2-6.6,8.7-9.6,13.6c-3.1,4.8-6,9.9-8.8,15.2c-2.8,5.3-5.5,10.6-8.1,15.9c-3.1,6.4-9.5,19.4-12.4,25.3
						s-5.8,11.2-8.6,15.8c-2.8,4.6-5.5,8.4-8.2,11.5c-2.7,3-5.4,4.8-8.2,5.4c-1.7,0.4-3.1,0.4-4.2,0s-2.1-1-2.8-2
						c-0.7-0.9-1.2-2.1-1.5-3.5s-0.3-2.9-0.2-4.5c0.5-5.7,3.1-10.9,10-16.3l0,0c-3.8-0.2-7.8,0.3-11.5,1.3
						c-4.7,1.3-9.4,3.1-13.3,6.2c-2,1.6-3.7,3.4-5.3,5.4l0,0c-1.6,2.7-2.8,10.1-3.6,15.4c-0.7,4.7-0.9,9-0.6,12.9s1.2,7.1,2.6,9.8
						c1.4,2.7,3.4,4.6,6.1,5.8C139.4,363.8,142.8,364.1,146.8,363.4z M210.3,264.7c2.4-5.3,4.9-10.4,7.6-15.1
						c2.6-4.8,5.5-9.2,8.5-13.3c3-4.1,6.2-7.7,9.7-10.8l0,0c-2.3,4.4-4.8,9.6-7.4,15.6s-5.1,12.3-7.5,19c-2.5,6.7-4.8,13.6-7,20.7
						s-4,13.9-5.6,20.6l0,0c-0.2-4-0.8-7.8-1.7-11.2c-0.9-3.4-2.2-6.5-3.7-9.3l0,0C205.5,275.4,207.9,270,210.3,264.7z"/>
				</g>
			</g>
			<g>
				<path d="M198.9,397.9c0.4-1.1,0.9-3.2,1.5-6.4c0.6-3.2,1.1-6.7,1.5-10.3c0.4-3.6,0.4-7,0.1-10.2s-1.3-5.3-2.8-6.4
					c1.8-0.3,2.8-0.4,3.2-0.4c0.4,0,0.5-0.1,0.4,0l3.9-1c4.6-0.9,8.5-0.8,11.7,0.4c3.2,1.1,5.8,2.9,7.8,5.4s3.5,5.5,4.5,9
					s1.6,7.3,1.8,11.3c0.2,4,0.1,8-0.3,12.1c-0.4,4-1.1,7.8-2,11.4l-10,43.3c4-1.7,8-4.8,12-9.1c3.9-4.4,7.5-9.5,10.8-15.4
					s6.2-12.3,8.8-19.3c2.5-6.9,4.5-13.9,5.9-20.9c1.4-7,2.1-13.6,2.1-19.9s-0.8-11.9-2.5-16.6c-1.7-4.7-4.4-8.4-8.1-11
					s-8.6-3.6-14.6-2.9c-7.2,0.7-14.3,3.1-21.4,7.2s-13.5,9.6-19.2,16.6c-5.8,7-10.6,15.4-14.7,25.1c-4.1,9.8-6.7,20.6-7.9,32.6
					c-0.8,6.5-0.9,12.3-0.3,17.4c0.6,5,1.6,9.2,2.8,12.6c1.2,3.4,2.5,5.9,3.7,7.4c1.3,1.6,2.1,2.2,2.6,1.9
					c-6.1,5.2-12.1,8.2-17.9,9.1s-10.9,0.2-15.4-2.2c-4.4-2.4-7.8-6.1-10.2-11.3c-2.4-5.2-3.2-11.2-2.5-18.1
					c0.7-12.1,3.8-24,9.1-35.8c5.3-11.8,12.3-22.6,20.9-32.6s18.5-18.6,29.8-26s23.3-12.8,36.1-16.2c9.5-2.5,17.9-3.9,25.1-4.2
					c7.2-0.3,13.4,0.4,18.7,1.9c5.2,1.5,9.6,3.7,13,6.7c3.5,2.9,6.2,6.4,8.2,10.3s3.3,8.1,4,12.7c0.7,4.5,0.9,9.1,0.6,13.8
					c-0.7,10.3-2.6,19.8-5.7,28.6c-3.1,8.8-7,16.9-11.7,24.3s-9.9,13.9-15.7,19.5c-5.8,5.7-11.6,10.4-17.5,14.1
					c-5.9,3.8-11.5,6.6-17.1,8.4c-5.5,1.8-10.4,2.6-14.5,2.2l-12.4,52c-0.2,1.1-0.7,3.3-1.3,6.5c-0.7,3.2-1.1,6.6-1.5,10.2
					c-0.3,3.6-0.4,7-0.1,10.2c0.2,3.1,1.2,5.3,2.7,6.3c-1.9,0.4-3.1,0.7-3.4,0.7c-0.4,0.1-0.5,0.1-0.4,0.1l-3.5,0.9
					c-4.6,0.9-8.5,0.8-11.7-0.4c-3.2-1.1-5.8-3-7.9-5.5s-3.6-5.6-4.6-9.1c-1-3.6-1.6-7.4-1.8-11.3c-0.2-4-0.1-8,0.3-12
					c0.4-4,1.1-7.8,2-11.4L198.9,397.9z"/>
				<path d="M316.1,500.4c-0.1,2.9,0.3,4.3,1.3,4.4c0.6,0.1,1.7-0.3,3.3-1.2s3.5-2.4,5.7-4.6c2.1-2.2,4.4-5.2,6.8-9.1
					c2.4-3.8,4.8-8.7,7-14.7c-1.5,9.1-3.8,16.7-6.9,22.7c-3,6.1-6.3,11-9.7,14.8c-3.4,3.8-6.7,6.6-10,8.5c-3.3,1.8-6.1,3.1-8.3,3.6
					c-4.4,1.2-8,0.8-10.8-1.1c-2.8-1.9-4.9-5.2-6.2-9.8c-1.3-4.6-1.9-10.4-1.6-17.4c0.3-6.9,1.4-14.8,3.2-23.7L318.1,340
					c0.3-1,0.7-3.2,1.3-6.4c0.6-3.2,1-6.6,1.3-10.2s0.2-7-0.1-10.1c-0.3-3.1-1.4-5.2-3-6.3l7.5-2c4.6-1.2,8.4-1.4,11.5-0.4
					c3,1,5.5,2.6,7.3,5.1c1.8,2.4,3.1,5.4,3.8,9c0.7,3.6,1.1,7.3,1.1,11.4c0,4-0.3,8.1-0.8,12.3c-0.5,4.2-1.1,8-1.9,11.5
					l-27.8,132.3C316.9,492.8,316.2,497.6,316.1,500.4z"/>
				<path d="M403.5,498.8c-6.3,1.8-11,0.3-14.3-4.3c-3.2-4.7-4.7-11.9-4.6-21.7c-1.5,4.8-3.2,9.5-5.2,14s-4.1,8.7-6.5,12.3
					c-2.4,3.7-5,6.8-7.8,9.3s-5.9,4.2-9.2,5.1c-3.4,1-6.2,0.7-8.6-1c-2.3-1.7-4.2-4.2-5.6-7.7c-1.4-3.4-2.4-7.6-3-12.5
					c-0.6-4.9-0.9-10-0.9-15.5s0.2-11.1,0.7-16.8c0.5-5.8,1.1-11.2,1.9-16.3c0.9-5.7,2.2-11.9,3.7-18.6s3.4-13.4,5.5-20.1
					c2.1-6.7,4.6-13.3,7.3-19.6c2.8-6.4,5.8-12.1,9-17.2c3.3-5.1,6.8-9.4,10.5-12.8c3.8-3.4,7.8-5.6,12-6.5c2.7-0.5,4.9-0.3,6.9,0.7
					c1.9,0.9,3.5,2.4,4.7,4.5c1.2,2,2.2,4.5,2.9,7.3s1.2,5.9,1.4,9.1c0.3-2.1,0.5-4.4,0.8-6.8c0.2-2.4,0.2-4.7,0.1-6.9
					c-0.1-2.2-0.5-4.1-1-5.7s-1.3-2.8-2.4-3.5l7.5-2c4.6-1.2,8.4-1.4,11.5-0.4c3,1,5.5,2.7,7.3,5.1c1.8,2.5,3.1,5.5,3.8,9
					c0.7,3.6,1.1,7.4,1.1,11.4c0,4.1-0.2,8.2-0.8,12.3c-0.5,4.1-1.2,7.9-1.9,11.4l-14.2,65.7c-1.4,6.6-2.1,11.3-2.2,14.2
					c-0.1,2.9,0.3,4.3,1.3,4.4c0.6,0.1,1.6-0.3,3.2-1.2c1.6-0.9,3.5-2.4,5.6-4.6s4.4-5.3,6.9-9.1c2.5-3.9,4.9-8.8,7.2-14.8
					c-1.7,9.1-4.1,16.8-7.2,22.9s-6.2,11.1-9.6,14.9c-3.4,3.8-6.7,6.6-10,8.4C408.4,497,405.7,498.2,403.5,498.8z M386.4,454.5
					c0.2-1.2,0.4-2.5,0.7-3.7s0.6-2.6,1-4l13.9-62.7c0.7-5.3,0.8-9.4,0.1-12.1s-1.7-4-3-3.9c-1.4,0.1-2.9,1.8-4.6,5.1
					c-1.7,3.2-3.2,8.2-4.6,14.9l-16.7,75c-1.3,6-1.8,10.7-1.7,14c0.2,3.3,0.8,5.3,2,5.8c1.1,0.6,2.5-0.2,4.2-2.4
					c1.7-2.2,3.3-5.8,5-10.8c1.2-3.3,2-6.5,2.6-9.5C385.8,457.3,386.2,455.4,386.4,454.5z"/>
				<path d="M464.4,453.2c-0.5,2.4-0.8,4.6-1,6.6s-0.1,3.7,0.3,5.1c0.4,1.4,1.2,1.9,2.5,1.5c1.7-0.5,3.4-2.3,5.1-5.4
					c1.7-3.2,3.2-7,4.7-11.5s2.8-9.4,4.1-14.5c1.3-5.2,2.3-9.9,3.2-14.2l14.3-65.4c0.1-0.7,0.4-1.9,0.7-3.6c0.4-1.7,0.7-3.7,1-5.9
					c0.3-2.2,0.6-4.6,0.9-7.1c0.2-2.5,0.3-4.8,0.2-7.1c-0.1-2.2-0.4-4.2-0.9-5.9c-0.5-1.7-1.3-2.9-2.5-3.5l7.5-2
					c4.6-1.2,8.4-1.4,11.5-0.4c3,1,5.5,2.7,7.2,5.1c1.8,2.5,3,5.5,3.8,9c0.7,3.6,1.1,7.4,1.2,11.4c0.1,4.1-0.2,8.1-0.8,12.3
					c-0.6,4.1-1.2,7.9-1.9,11.4l-16.9,82.2c-1.1,5.8-2.4,12-3.9,18.6s-3.2,13.2-5.3,19.9c-2.1,6.7-4.6,13.2-7.5,19.7
					c-2.9,6.5-6.4,12.4-10.5,17.9s-8.9,10.4-14.3,14.6c-5.4,4.3-11.7,7.5-18.9,9.8c-5.7,1.7-10.5,2.7-14.4,3s-7.2,0.1-9.9-0.7
					s-4.8-2-6.3-3.6s-2.6-3.3-3.4-5.3c-0.8-1.9-1.3-3.9-1.4-6c-0.2-2-0.2-3.9-0.1-5.5c0.8-5.5,2.1-10.1,4-14s4-7.1,6.4-9.7
					c2.4-2.6,12.8-11.9,15.3-13.9c3.3-2.8-1.9,5,0.8,4c2.6-0.9,5.1-1.6,7.4-2.1c2.3-0.4,4.2-0.9,5.8-1.3c-3.6,3.7-6.5,7.7-8.7,11.9
					c-2.2,4.2-3.7,8.2-4.7,12.1c-1,3.9-1.5,7.6-1.4,11.1s0.6,6.4,1.5,8.9c0.9,2.4,2.2,4.2,3.9,5.4s3.5,1.4,5.6,0.8
					c3-1,5.7-4.1,7.9-9.1s4.2-11.1,6-18.3s3.5-15,5.1-23.5s3.2-16.8,5-24.9l0.8-4.4c-5.2,10.1-12,16.4-20.5,19.1
					c-4.4,1.5-8.1,1.3-10.9-0.7c-2.8-2-4.9-5.3-6.3-10c-1.4-4.7-1.9-10.5-1.5-17.6c0.3-7.1,1.4-15,3.2-23.9l13.9-65.6
					c0.1-0.7,0.4-1.9,0.7-3.6c0.4-1.7,0.7-3.7,1-5.9c0.3-2.2,0.6-4.6,0.8-7c0.2-2.5,0.2-4.8,0.1-7c-0.1-2.2-0.4-4.2-0.9-5.9
					c-0.5-1.7-1.3-2.9-2.3-3.6l7.5-2c4.6-1.2,8.4-1.4,11.5-0.4c3,1,5.4,2.7,7.2,5.1s3,5.4,3.8,9c0.7,3.6,1.1,7.4,1.1,11.4
					s-0.3,8.1-0.9,12.2c-0.6,4.1-1.2,7.9-2,11.5l-13.2,65.1C465.3,448.7,464.9,450.8,464.4,453.2z"/>
				<g>
					<path d="M433.7,527.3c3-3.8,6.3-7.3,9.9-10.6c1.8-1.6,3.6-3.2,5.5-4.7c0.8-0.7,1.7-1.3,2.6-2c0.5-0.4,1-0.7,1.4-1.1
						c0.1,0,2-1.4,0.7-0.5c8-5.6,16.6-10.3,25.3-14.8c17.9-9.2,36.1-17.5,52.5-29.4c31.8-23,55.4-56.9,67.7-94
						c7.2-21.8,10.6-44.9,9.6-67.8c-0.2-4-2.4-10.6-7.5-10.4c-5,0.2-6.7,7-6.6,11c0.1,2.4,0.2,4.8,0.2,7.2c0,1,0,1.9,0,2.9
						c0,0.9,0.3,3.5-0.1,4.3c0.1-0.1,0.2-2.7,0-0.7c0,0.6-0.1,1.2-0.1,1.8c-0.1,1.1-0.2,2.2-0.2,3.2c-0.2,2.4-0.5,4.8-0.8,7.2
						c-0.6,4.8-1.4,9.5-2.4,14.2c-0.1,0.5-0.2,0.9-0.3,1.4c0,0.2-0.6,2.5-0.2,0.8c0.4-1.7-0.2,0.7-0.2,0.8c-0.1,0.5-0.2,0.9-0.3,1.4
						c-0.6,2.4-1.3,4.9-2,7.3c-1.3,4.5-2.9,8.9-4.5,13.3c-0.8,2-1.6,4-2.4,6c-0.4,1-0.8,2.3-1.4,3.3c1.1-1.7,0.2-0.5,0,0.1
						c-0.3,0.7-0.6,1.3-0.9,2c-4.1,8.6-8.9,16.8-14.2,24.7c-1.2,1.8-2.5,3.5-3.8,5.3c-0.7,1-1.4,1.9-2.2,2.9c-0.2,0.3-1,1.3,0,0
						c-0.4,0.6-0.9,1.1-1.3,1.7c-3,3.7-6.2,7.4-9.5,10.8c-6.4,6.8-13.4,13.1-20.9,18.8c-0.9,0.7-1.7,1.3-2.6,1.9
						c-0.5,0.4-1,0.7-1.5,1.1c-0.2,0.1-1.2,0.8-0.1,0.1c-2,1.4-4,2.7-6,4c-4.1,2.6-8.4,5.1-12.7,7.4c-8.5,4.6-17.2,8.8-25.8,13.2
						c-19.3,9.8-38.9,20.8-52.6,38c-3.2,4-4.2,9.9-1.9,14.7C425.5,527.1,430.3,531.6,433.7,527.3L433.7,527.3z"/>
				</g>
			</g>
		</g>
		<g>
			<path class="st1" d="M451.8,227.9c3.2-0.4,5.9-0.1,8,0.8c2.1,1,3.7,2.4,4.9,4.4c1.1,2,1.9,4.4,2.2,7.2c0.3,2.8,0.3,5.9,0,9.3
				s-0.9,6.9-1.7,10.7c-0.8,3.7-1.8,7.5-3,11.3c-2.1,6.6-4.4,12.7-7.2,18.2c-2.7,5.6-5.8,10.4-9.1,14.5s-6.9,7.4-10.7,9.8
				s-7.8,3.8-11.9,4.2c-4.5,0.3-7.9-0.7-10.2-3.1s-3.8-5.8-4.4-10.1c-0.6-4.3-0.4-9.4,0.5-15.2c0.9-5.8,2.5-11.8,4.6-18
				c2-6,4.3-11.6,6.9-16.7c2.6-5.1,5.5-9.6,8.6-13.5c3.2-3.9,6.6-7,10.4-9.4C443.5,229.8,447.5,228.4,451.8,227.9z M424.4,304.7
				c-0.9,2.6-1.4,4.7-1.7,6.4c-0.2,1.7-0.2,2.9,0.1,3.7c0.3,0.8,0.7,1.1,1.4,1c0.6-0.2,1.4-0.8,2.3-2l0,0c1-1.6,2.1-3.9,3.1-6.9
				l22.5-66.8c0.4-1,0.7-2,0.9-3c0.2-0.9,0.4-1.9,0.6-2.8l0,0c0.1-1.6-0.1-2.8-0.5-3.4c-0.4-0.6-1-0.7-1.8-0.2
				c-0.7,0.5-1.6,1.6-2.5,3.3c-1,1.7-1.9,4-2.8,7L424.4,304.7z"/>
			<path class="st1" d="M497,304.9c-3.4,0.6-5.8-0.4-7.4-2.9c-1.5-2.5-2-6.2-1.6-11l0,0c-2.2,5.4-4.7,9.5-7.4,12.5s-5.9,4.8-9.6,5.6
				c-2.5,0.6-4.5,0.2-5.9-1c-1.4-1.3-2.4-3.2-2.9-5.9c-0.5-2.7-0.4-5.9,0.2-9.8c0.6-3.9,1.6-8.2,3.2-12.9l11.5-35.3
				c0.1-0.4,0.3-1,0.6-1.9s0.6-2,0.9-3.2c0.3-1.2,0.6-2.5,0.8-3.8c0.3-1.3,0.4-2.6,0.5-3.9c0.1-1.2,0-2.3-0.2-3.3
				c-0.2-0.9-0.5-1.6-1-2.1l0,0l4.2-0.7c2.6-0.4,4.7-0.3,6.3,0.5c1.6,0.7,2.8,1.8,3.7,3.2c0.8,1.4,1.3,3.2,1.5,5.2s0.2,4.1-0.1,6.4
				c-0.2,2.2-0.6,4.4-1.2,6.7c-0.6,2.2-1.1,4.3-1.8,6.2l-11.1,35c-0.3,0.9-0.6,2-1,3.3s-0.7,2.5-0.9,3.6s-0.2,2-0.1,2.8
				c0.1,0.8,0.5,1.1,1.3,1c1-0.1,2-1,3.1-2.7s2.2-3.7,3.3-6.1s2.1-5,3.1-7.7c1-2.8,1.9-5.3,2.6-7.6l11.8-35.1c0.1-0.4,0.3-1,0.6-1.9
				s0.6-2,0.9-3.2c0.3-1.2,0.6-2.5,0.9-3.8c0.3-1.3,0.5-2.6,0.5-3.9c0.1-1.2,0-2.3-0.2-3.3c-0.2-0.9-0.6-1.6-1.1-2.1l0,0l4.2-0.7
				c2.6-0.4,4.7-0.3,6.3,0.5c1.6,0.7,2.9,1.8,3.7,3.3c0.9,1.5,1.4,3.2,1.6,5.2c0.2,2,0.2,4.1-0.1,6.4c-0.2,2.2-0.6,4.5-1.1,6.7
				s-1.1,4.3-1.7,6.2l-11.7,35.3c-1.1,3.5-1.8,6.1-2,7.7s-0.1,2.4,0.5,2.5c0.3,0.1,0.9-0.1,1.8-0.5c0.9-0.4,2-1.1,3.4-2.2
				c1.3-1.1,2.8-2.6,4.3-4.6c1.6-1.9,3.2-4.5,4.8-7.6l0,0c-1.5,4.9-3.2,9-5.2,12.2s-4.1,5.7-6.2,7.6c-2.1,1.9-4.1,3.2-6,4
				C499.9,304.2,498.3,304.7,497,304.9z"/>
			<path class="st1" d="M425.6,206.9c-0.4-2-1.1-3.7-2.2-5.1c-1-1.4-2.4-2.5-4.1-3.1c-1.7-0.7-3.9-0.8-6.5-0.4l-4.2,0.7l0,0
				c0.8,0.7,1.3,1.9,1.3,3.6c0,1.7-0.2,3.6-0.5,5.6c-0.4,2-0.8,3.8-1.3,5.6c-0.5,1.7-0.9,2.9-1.1,3.4l-1.9,5.8
				c-1.3,3.7-2.9,7.8-4.7,12.3s-3.6,9.1-5.6,13.7s-3.9,9.1-5.9,13.4s-3.8,8.2-5.6,11.6s-3.3,6.1-4.7,8.2s-2.5,3.1-3.3,3.2
				c-0.5,0.1-0.9-0.1-1.2-0.4c-0.3-0.4-0.5-1-0.6-1.9c0-0.9,0.1-2.2,0.4-3.8c0.3-1.6,0.9-3.6,1.7-6.1l10.7-33.3
				c0.9-2.7,1.6-5.7,2.3-8.8s1.1-6.2,1.2-9.2c0.1-3-0.1-5.8-0.6-8.5s-1.6-4.9-3.2-6.8c-1.6-1.8-3.8-3.1-6.5-3.9
				c-2.8-0.7-6.3-0.7-10.6,0.1c-2.1,0.4-4.4,1.2-7,2.4c-2.6,1.1-5.3,2.6-8.1,4.5c-2.8,1.9-5.6,4.2-8.5,6.8c-2.8,2.7-5.5,5.7-7.9,9.1
				c-2.4,3.4-4.6,7.3-6.4,11.5c-1.9,4.3-3.3,8.9-4.2,14c-1,5.5-1,10.1-0.1,13.7c0.9,3.6,2.5,6.2,4.8,7.8c2.3,1.6,5.2,2.4,8.6,2.1
				c3.5-0.2,7.3-1.4,11.5-3.6l0,0c-2-1.3-3.4-3.1-4.3-5.4c-0.9-2.4-1.4-5-1.5-8c-0.1-3,0.2-6.2,0.8-9.6c0.7-3.4,1.6-6.9,2.8-10.4
				c1.2-3.5,2.7-6.8,4.4-10.1c1.7-3.2,3.5-6.2,5.4-8.8c1.9-2.6,4-4.9,6.1-6.7c2.2-1.8,4.3-3,6.4-3.6c1.7-0.4,2.7-0.1,3.2,1
				s0.6,2.7,0.3,4.6c-0.2,2-0.7,4.2-1.5,6.7c-0.7,2.5-1.5,4.9-2.3,7.2c-2.2,6.5-4,12-5.5,16.4s-2.7,8-3.6,10.8
				c-0.9,2.8-1.6,4.9-2.1,6.3s-0.8,2.5-1,3.1s-0.3,0.9-0.4,1c-0.1,0-0.1,0.1-0.1,0.1c0,0.1-0.1,0.3-0.2,0.6
				c-0.1,0.3-0.3,1.1-0.8,2.2l0,0c-0.6,1.9-1.1,4-1.5,6c-0.5,2.1-0.8,4.1-1,6.1s-0.2,3.9,0,5.6c0.2,1.8,0.7,3.3,1.5,4.6
				c2.6,3.9,7,5.4,13.1,4.5c1.5-0.2,3.1-1,4.6-2.3s3.1-2.9,4.6-5c1.5-2,3.1-4.4,4.5-7c1.5-2.6,2.9-5.2,4.3-8l0,0
				c-2.2,6.4-4.5,12.7-6.9,18.9c-2.4,6.3-4.7,12.3-7,18s-4.6,11-6.9,15.9c-0.9,1.9-1.7,3.6-2.5,5.3l0,0c0,1.2-0.1,2.4-0.2,3.7
				c-0.3,3-0.8,6-1.5,9.1s-1.5,5.9-2.3,8.4l-0.9,2.7l0,0c2.1-0.9,4.1-2,6.1-3.4c3.9-2.7,7.6-6.5,11.1-11.4c3.5-4.8,7-10.8,10.4-17.8
				s7-15.3,10.7-24.7c3.7-9.4,7.6-20.1,11.8-32.1s8.8-25.3,13.9-40c0.6-1.9,1.2-4,1.6-6.2c0.4-2.2,0.7-4.5,0.8-6.6
				C426.2,211,426,208.9,425.6,206.9z"/>
			<g>
				<path class="st1" d="M300.1,319.4L300.1,319.4c0.4-0.7,0.8-1.4,1.2-2.1c1.8-3.3,3.2-7.4,4.3-12.3l0,0c-1.4,3.2-2.8,5.8-4.2,7.8
					c-1.4,2.1-2.7,3.7-4,4.9c-0.2,0.2-0.4,0.4-0.6,0.5c0,0.1,0,0.1,0.1,0.2C298,318.7,299.1,319,300.1,319.4z"/>
				<path class="st1" d="M313.2,218.5c-0.3-2-1-3.7-1.9-5c-1-1.4-2.3-2.4-3.9-3c-1.7-0.6-3.8-0.6-6.4,0l-4.2,0.9l0,0
					c0.9,0.6,1.4,1.8,1.5,3.5c0.1,1.7,0.1,3.6-0.2,5.6c-0.2,2-0.5,3.9-0.9,5.6c-0.4,1.8-0.7,2.9-0.8,3.5l-18.5,72.8
					c-0.6,2.6-1.2,5-1.5,7.3l0,0c2.6,0.3,4.9,0.8,7.1,1.4c3.3,0.9,6.2,2.2,8.7,3.7l0,0c0.2-1.2,0.6-2.7,1-4.4l18.3-72.5
					c0.5-1.9,0.9-4,1.3-6.3c0.4-2.3,0.6-4.5,0.7-6.8C313.6,222.6,313.5,220.5,313.2,218.5z"/>
				<path class="st1" d="M268.1,309.3L268.1,309.3l16.5-65.4c0.5-1.9,0.9-4,1.3-6.3c0.4-2.3,0.6-4.5,0.7-6.8c0.1-2.2,0-4.3-0.4-6.3
					c-0.3-2-1-3.7-1.9-5c-1-1.4-2.3-2.4-3.9-3c-1.7-0.6-3.8-0.6-6.4,0l-4.2,0.9l0,0c0.9,0.6,1.4,1.8,1.5,3.5
					c0.1,1.7,0.1,3.6-0.2,5.6c-0.2,2-0.5,3.9-0.9,5.6c-0.4,1.8-0.7,2.9-0.8,3.5l-18.5,72.8c-0.2,0.9-0.4,1.8-0.6,2.6l0,0
					c5.2-1,10.1-1.6,14.5-1.7C265.9,309.3,267,309.3,268.1,309.3z"/>
			</g>
			<g>
				<path class="st1" d="M156.4,361.5c4.3-0.7,8.4-2.3,12-4.7c3.7-2.4,7.1-5.5,10.3-9.2c3.2-3.7,6.2-8,9-12.7
					c2.8-4.8,5.5-9.9,8-15.3c2.6-5.4,5-11.1,7.4-17s4.8-11.8,7.3-17.8l0,0c1.2,1.7,2.1,3.7,2.9,5.8c0.8,2.1,1.4,4.4,1.8,6.7
					c0.4,2.4,0.7,4.7,0.8,7.2c0.1,2.4,0,4.8-0.2,7.1l0,0c-0.7,4.2-1.2,8.2-1.5,11.9l0,0c7.8-4.1,16-7.3,24.4-9.6l0,0
					c0.3-1.2,0.5-2.4,0.8-3.6c1.2-5.2,2.6-11,4.2-17.5c1.6-6.4,3.4-13.3,5.4-20.6c1.9-7.3,4-14.7,6.1-22.3
					c2.1-7.6,4.4-15.1,6.7-22.7c2.3-7.5,4.7-14.7,7.1-21.6l0,0c-4.4,0.3-8.6,1.4-12.6,3.3c-4,2-7.8,4.5-11.5,7.7
					c-3.6,3.2-7.1,6.8-10.5,11c-3.3,4.2-6.6,8.7-9.6,13.6c-3.1,4.8-6,9.9-8.8,15.2c-2.8,5.3-5.5,10.6-8.1,15.9
					c-3.1,6.4-9.5,19.4-12.4,25.3s-5.8,11.2-8.6,15.8c-2.8,4.6-5.5,8.4-8.2,11.5c-2.7,3-5.4,4.8-8.2,5.4c-1.7,0.4-3.1,0.4-4.2,0
					s-2.1-1-2.8-2c-0.7-0.9-1.2-2.1-1.5-3.5s-0.3-2.9-0.2-4.5c0.5-5.7,3.1-10.9,10-16.3l0,0c-3.8-0.2-7.8,0.3-11.5,1.3
					c-4.7,1.3-9.4,3.1-13.3,6.2c-2,1.6-3.7,3.4-5.3,5.4l0,0c-2,2.5-2.8,10.1-3.6,15.4c-0.7,4.7-0.9,9-0.6,12.9s1.2,7.1,2.6,9.8
					c1.4,2.7,3.4,4.6,6.1,5.8C149,361.9,152.3,362.2,156.4,361.5z M219.8,262.8c2.4-5.3,4.9-10.4,7.6-15.1c2.6-4.8,5.5-9.2,8.5-13.3
					c3-4.1,6.2-7.7,9.7-10.8l0,0c-2.3,4.4-4.8,9.6-7.4,15.6s-5.1,12.3-7.5,19c-2.5,6.7-4.8,13.6-7,20.7s-4,13.9-5.6,20.6l0,0
					c-0.2-4-0.8-7.8-1.7-11.2c-0.9-3.4-2.2-6.5-3.7-9.3l0,0C215.1,273.5,217.4,268.1,219.8,262.8z"/>
			</g>
		</g>
		<g>
			<path class="st1" d="M208.5,396c0.4-1.1,0.9-3.2,1.5-6.4c0.6-3.2,1.1-6.7,1.5-10.3c0.4-3.6,0.4-7,0.1-10.2s-1.3-5.3-2.8-6.4
				c1.8-0.3,2.8-0.4,3.2-0.4c0.4,0,0.5-0.1,0.4,0l3.9-1c4.6-0.9,8.5-0.8,11.7,0.4c3.2,1.1,5.8,2.9,7.8,5.4s3.5,5.5,4.5,9
				s1.6,7.3,1.8,11.3c0.2,4,0.1,8-0.3,12.1c-0.4,4-1.1,7.8-2,11.4l-10,43.3c4-1.7,8-4.8,12-9.1c3.9-4.4,7.5-9.5,10.8-15.4
				s6.2-12.3,8.8-19.3c2.5-6.9,4.5-13.9,5.9-20.9c1.4-7,2.1-13.6,2.1-19.9s-0.8-11.9-2.5-16.6s-4.4-8.4-8.1-11
				c-3.7-2.6-8.6-3.6-14.6-2.9c-7.2,0.7-14.3,3.1-21.4,7.2s-13.5,9.6-19.2,16.6c-5.8,7-10.6,15.4-14.7,25.1
				c-4.1,9.8-6.7,20.6-7.9,32.6c-0.8,6.5-0.9,12.3-0.3,17.4c0.6,5,1.6,9.2,2.8,12.6c1.2,3.4,2.5,5.9,3.7,7.4
				c1.3,1.6,2.1,2.2,2.6,1.9c-6.1,5.2-12.1,8.2-17.9,9.1s-10.9,0.2-15.4-2.2c-4.4-2.4-7.8-6.1-10.2-11.3c-2.4-5.2-3.2-11.2-2.5-18.1
				c0.7-12.1,3.8-24,9.1-35.8c5.3-11.8,12.3-22.6,20.9-32.6s18.5-18.6,29.8-26s23.3-12.8,36.1-16.2c9.5-2.5,17.9-3.9,25.1-4.2
				c7.2-0.3,13.4,0.4,18.7,1.9c5.2,1.5,9.6,3.7,13,6.7c3.5,2.9,6.2,6.4,8.2,10.3s3.3,8.1,4,12.7c0.7,4.5,0.9,9.1,0.6,13.8
				c-0.7,10.3-2.6,19.8-5.7,28.6c-3.1,8.8-7,16.9-11.7,24.3s-9.9,13.9-15.7,19.5c-5.8,5.7-11.6,10.4-17.5,14.1
				c-5.9,3.8-11.5,6.6-17.1,8.4c-5.5,1.8-10.4,2.6-14.5,2.2l-12.4,52c-0.2,1.1-0.7,3.3-1.3,6.5c-0.7,3.2-1.1,6.6-1.5,10.2
				c-0.3,3.6-0.4,7-0.1,10.2c0.2,3.1,1.2,5.3,2.7,6.3c-1.9,0.4-3.1,0.7-3.4,0.7c-0.4,0.1-0.5,0.1-0.4,0.1l-3.5,0.9
				c-4.6,0.9-8.5,0.8-11.7-0.4c-3.2-1.1-5.8-3-7.9-5.5s-3.6-5.6-4.6-9.1c-1-3.6-1.6-7.4-1.8-11.3c-0.2-4-0.1-8,0.3-12
				c0.4-4,1.1-7.8,2-11.4L208.5,396z"/>
			<path class="st1" d="M325.6,498.5c-0.1,2.9,0.3,4.3,1.3,4.4c0.6,0.1,1.7-0.3,3.3-1.2s3.5-2.4,5.7-4.6c2.1-2.2,4.4-5.2,6.8-9.1
				c2.4-3.8,4.8-8.7,7-14.7c-1.5,9.1-3.8,16.7-6.9,22.7c-3,6.1-6.3,11-9.7,14.8c-3.4,3.8-6.7,6.6-10,8.5c-3.3,1.8-6.1,3.1-8.3,3.6
				c-4.4,1.2-8,0.8-10.8-1.1c-2.8-1.9-4.9-5.2-6.2-9.8c-1.3-4.6-1.9-10.4-1.6-17.4c0.3-6.9,1.4-14.8,3.2-23.7l28.2-132.8
				c0.3-1,0.7-3.2,1.3-6.4c0.6-3.2,1-6.6,1.3-10.2s0.2-7-0.1-10.1c-0.3-3.1-1.4-5.2-3-6.3l7.5-2c4.6-1.2,8.4-1.4,11.5-0.4
				c3,1,5.5,2.6,7.3,5.1c1.8,2.4,3.1,5.4,3.8,9c0.7,3.6,1.1,7.3,1.1,11.4c0,4-0.3,8.1-0.8,12.3c-0.5,4.2-1.1,8-1.9,11.5l-27.8,132.3
				C326.5,490.9,325.7,495.6,325.6,498.5z"/>
			<path class="st1" d="M413,496.9c-6.3,1.8-11,0.3-14.3-4.3c-3.2-4.7-4.7-11.9-4.6-21.7c-1.5,4.8-3.2,9.5-5.2,14s-4.1,8.7-6.5,12.3
				c-2.4,3.7-5,6.8-7.8,9.3s-5.9,4.2-9.2,5.1c-3.4,1-6.2,0.7-8.6-1c-2.3-1.7-4.2-4.2-5.6-7.7c-1.4-3.4-2.4-7.6-3-12.5
				c-0.6-4.9-0.9-10-0.9-15.5s0.2-11.1,0.7-16.8c0.5-5.8,1.1-11.2,1.9-16.3c0.9-5.7,2.2-11.9,3.7-18.6s3.4-13.4,5.5-20.1
				c2.1-6.7,4.6-13.3,7.3-19.6c2.8-6.4,5.8-12.1,9-17.2c3.3-5.1,6.8-9.4,10.5-12.8c3.8-3.4,7.8-5.6,12-6.5c2.7-0.5,4.9-0.3,6.9,0.7
				c1.9,0.9,3.5,2.4,4.7,4.5c1.2,2,2.2,4.5,2.9,7.3s1.2,5.9,1.4,9.1c0.3-2.1,0.5-4.4,0.8-6.8c0.2-2.4,0.2-4.7,0.1-6.9
				c-0.1-2.2-0.5-4.1-1-5.7s-1.3-2.8-2.4-3.5l7.5-2c4.6-1.2,8.4-1.4,11.5-0.4c3,1,5.5,2.7,7.3,5.1c1.8,2.5,3.1,5.5,3.8,9
				c0.7,3.6,1.1,7.4,1.1,11.4c0,4.1-0.2,8.2-0.8,12.3c-0.5,4.1-1.2,7.9-1.9,11.4l-14.2,65.7c-1.4,6.6-2.1,11.3-2.2,14.2
				c-0.1,2.9,0.3,4.3,1.3,4.4c0.6,0.1,1.6-0.3,3.2-1.2c1.6-0.9,3.5-2.4,5.6-4.6s4.4-5.3,6.9-9.1c2.5-3.9,4.9-8.8,7.2-14.8
				c-1.7,9.1-4.1,16.8-7.2,22.9c-3,6.1-6.2,11.1-9.6,14.9c-3.4,3.8-6.7,6.6-10,8.4C417.9,495.1,415.2,496.3,413,496.9z M395.9,452.6
				c0.2-1.2,0.4-2.5,0.7-3.7s0.6-2.6,1-4l13.9-62.7c0.7-5.3,0.8-9.4,0.1-12.1s-1.7-4-3-3.9c-1.4,0.1-2.9,1.8-4.6,5.1
				c-1.7,3.2-3.2,8.2-4.6,14.9l-16.7,75c-1.3,6-1.8,10.7-1.7,14c0.2,3.3,0.8,5.3,2,5.8c1.1,0.6,2.5-0.2,4.2-2.4
				c1.7-2.2,3.3-5.8,5-10.8c1.2-3.3,2-6.5,2.6-9.5C395.3,455.4,395.7,453.5,395.9,452.6z"/>
			<path class="st1" d="M473.9,451.3c-0.5,2.4-0.8,4.6-1,6.6s-0.1,3.7,0.3,5.1c0.4,1.4,1.2,1.9,2.5,1.5c1.7-0.5,3.4-2.3,5.1-5.4
				c1.7-3.2,3.2-7,4.7-11.5s2.8-9.4,4.1-14.5c1.3-5.2,2.3-9.9,3.2-14.2l14.3-65.4c0.1-0.7,0.4-1.9,0.7-3.6c0.4-1.7,0.7-3.7,1-5.9
				c0.3-2.2,0.6-4.6,0.9-7.1c0.2-2.5,0.3-4.8,0.2-7.1c-0.1-2.2-0.4-4.2-0.9-5.9c-0.5-1.7-1.3-2.9-2.5-3.5l7.5-2
				c4.6-1.2,8.4-1.4,11.5-0.4c3,1,5.5,2.7,7.2,5.1c1.8,2.5,3,5.5,3.8,9c0.7,3.6,1.1,7.4,1.2,11.4c0.1,4.1-0.2,8.1-0.8,12.3
				c-0.6,4.1-1.2,7.9-1.9,11.4l-16.9,82.2c-1.1,5.8-2.4,12-3.9,18.6s-3.2,13.2-5.3,19.9c-2.1,6.7-4.6,13.2-7.5,19.7
				c-2.9,6.5-6.4,12.4-10.5,17.9s-8.9,10.4-14.3,14.6c-5.4,4.3-11.7,7.5-18.9,9.8c-5.7,1.7-10.5,2.7-14.4,3s-7.2,0.1-9.9-0.7
				s-4.8-2-6.3-3.6s-2.6-3.3-3.4-5.3c-0.8-1.9-1.3-3.9-1.4-6c-0.2-2-0.2-3.9-0.1-5.5c0.8-5.5,2.1-10.1,4-14s4-7.1,6.4-9.7
				c2.4-2.6,12.8-11.9,15.3-13.9c3.3-2.8-1.9,5,0.8,4c2.6-0.9,5.1-1.6,7.4-2.1c2.3-0.4,4.2-0.9,5.8-1.3c-3.6,3.7-6.5,7.7-8.7,11.9
				s-3.7,8.2-4.7,12.1c-1,3.9-1.5,7.6-1.4,11.1s0.6,6.4,1.5,8.9c0.9,2.4,2.2,4.2,3.9,5.4s3.5,1.4,5.6,0.8c3-1,5.7-4.1,7.9-9.1
				s4.2-11.1,6-18.3c1.8-7.2,3.5-15,5.1-23.5s3.2-16.8,5-24.9l0.8-4.4c-5.2,10.1-12,16.4-20.5,19.1c-4.4,1.5-8.1,1.3-10.9-0.7
				c-2.8-2-4.9-5.3-6.3-10c-1.4-4.7-1.9-10.5-1.5-17.6c0.3-7.1,1.4-15,3.2-23.9l13.9-65.6c0.1-0.7,0.4-1.9,0.7-3.6
				c0.4-1.7,0.7-3.7,1-5.9c0.3-2.2,0.6-4.6,0.8-7c0.2-2.5,0.2-4.8,0.1-7c-0.1-2.2-0.4-4.2-0.9-5.9c-0.5-1.7-1.3-2.9-2.3-3.6l7.5-2
				c4.6-1.2,8.4-1.4,11.5-0.4c3,1,5.4,2.7,7.2,5.1s3,5.4,3.8,9c0.7,3.6,1.1,7.4,1.1,11.4s-0.3,8.1-0.9,12.2c-0.6,4.1-1.2,7.9-2,11.5
				l-13.3,65.3C474.8,446.8,474.4,448.9,473.9,451.3z"/>
			<g>
				<path class="st1" d="M443.2,525.4c3-3.8,6.3-7.3,9.9-10.6c1.8-1.6,3.6-3.2,5.5-4.7c0.8-0.7,1.7-1.3,2.6-2c0.5-0.4,1-0.7,1.4-1.1
					c0.1,0,2-1.4,0.7-0.5c8-5.6,16.6-10.3,25.3-14.8c17.9-9.2,36.1-17.5,52.5-29.4c31.8-23,52.9-49.8,65.2-86.9
					c7.2-21.8,13.1-52,12.1-74.9c-0.2-4-2.4-10.6-7.5-10.4c-5,0.2-6.7,7-6.6,11c0.1,2.4,0.2,4.8,0.2,7.2c0,1,0,1.9,0,2.9
					c0,0.9,0.3,3.5-0.1,4.3c0.1-0.1,0.2-2.7,0-0.7c0,0.6-0.1,1.2-0.1,1.8c-0.1,1.1-0.2,2.2-0.2,3.2c-0.2,2.4-0.5,4.8-0.8,7.2
					c-0.6,4.8-1.4,9.5-2.4,14.2c-0.1,0.5-0.2,0.9-0.3,1.4c0,0.2-0.6,2.5-0.2,0.8c0.4-1.7-0.2,0.7-0.2,0.8c-0.1,0.5-0.2,0.9-0.3,1.4
					c-0.6,2.4-1.3,4.9-2,7.3c-1.3,4.5-2.9,8.9-4.5,13.3c-0.8,2-1.6,4-2.4,6c-0.4,1-0.8,2.3-1.4,3.3c1.1-1.7,0.2-0.5,0,0.1
					c-0.3,0.7-0.6,1.3-0.9,2c-4.1,8.6-8.9,16.8-14.2,24.7c-1.2,1.8-2.5,3.5-3.8,5.3c-0.7,1-1.4,1.9-2.2,2.9c-0.2,0.3-1,1.3,0,0
					c-0.4,0.6-0.9,1.1-1.3,1.7c-3,3.7-6.2,7.4-9.5,10.8c-6.4,6.8-13.4,13.1-20.9,18.8c-0.9,0.7-1.7,1.3-2.6,1.9
					c-0.5,0.4-1,0.7-1.5,1.1c-0.2,0.1-1.2,0.8-0.1,0.1c-2,1.4-4,2.7-6,4c-4.1,2.6-8.4,5.1-12.7,7.4c-8.5,4.6-17.2,8.8-25.8,13.2
					c-19.3,9.8-38.9,20.8-52.6,38c-3.2,4-4.2,9.9-1.9,14.7C435,525.2,439.8,529.6,443.2,525.4L443.2,525.4z"/>
			</g>
		</g>
		<ellipse transform="matrix(0.7514 -0.6598 0.6598 0.7514 -32.8 503.4337)" cx="651.8" cy="295.2" rx="6.9" ry="6.9"/>
		<path d="M372.7,389.1c0,0-13.8,26.4-17,72.4c0,0,4.3-30.7,8.5-45.4C368.4,401.4,372.7,389.1,372.7,389.1z"/>
		<path d="M402.9,351.2c-4.7-4.3-17.4,1.7-26.8,20.3c-9.4,18.6-26.1,58-24,109.8c0.3,6.4,0.9,11.5,1.8,15.5
			c-0.2-8.1-0.6-16.1-0.3-24.2c0.2-5.9,0.5-11.3,0.7-17.5c1.2-12.9,3.9-26.6,8.3-42.2c2.7-9.7,5.8-18.2,9-25.5
			c10.2-23.4,21.7-35.2,27.9-35.7C407.8,351,402.9,351.2,402.9,351.2z"/>
		<path d="M326,392.9c0,0-23.5,116.4-22.6,119.3c1,2.9,3.2,5.1,3.2,5.1s-2.2-5.7,0.6-20.7C310.1,481.7,326,392.9,326,392.9z"/>
		<path d="M334.5,311.2c2.4,8.1,0.7,16-7.9,54.3c-8.6,38.4-27,120.1-27.2,129.1c-0.2,9.1,1.4,14.9,1.4,14.9S326.3,376,329.4,361
			c3.1-15,10.2-46.5,7.6-48.1C334.5,311.2,334.5,311.2,334.5,311.2z"/>
		<path class="st2" d="M265.5,342.6c6.7,12.3,11.6,32-2.6,72.2c0,0,13.1-28.8,11.5-46.7C272.8,350.2,265.5,342.6,265.5,342.6z"/>
		<path d="M218.8,370.1c0.3,2.5-1,10.3-7.9,45.6c0,0,9.5-38.9,8.7-42.3C218.8,370.1,218.8,370.1,218.8,370.1z"/>
		<path d="M214.4,366.5c2.4,8.1,0.7,16-7.9,54.3c-8.6,38.4-21.8,90.6-21.9,99.6c-0.2,9.1,1.4,14.9,1.4,14.9s20.3-104,23.4-119
			s10.2-46.5,7.6-48.1C214.4,366.5,214.4,366.5,214.4,366.5z"/>
		<path d="M201.6,466.2c0,0-14.4,68.9-14.4,70.4s0.5,5.1,4,7.9c0,0-3.2-3.3-2.1-9.2S201.6,466.2,201.6,466.2z"/>
		<path class="st2" d="M155.3,406.5c0,0-13.6,37.4-1.7,50.8c12,13.4,25.3,3.3,25.3,3.3s-20.3,5-25.3-13.8
			C148.7,428,155.3,406.5,155.3,406.5z"/>
		<path class="st2" d="M413.5,376.6c0.3,7.9-12.2,60.5-12.2,60.5"/>
		<path class="st2" d="M514.2,332.7c0.5,12.3-19,93.9-19,93.9"/>
		<path class="st2" d="M472.6,527.5c2.3-8.1,5.6-20.4,9-33.1c-0.4,0.2-0.9,0.5-1.3,0.7l-8.1,32.8
			C472.3,527.8,472.4,527.7,472.6,527.5z"/>
		<path class="st2" d="M465.8,339.1c1.4,8.6,2.4,14.8-10,67.8s-8.6,59.2-8.6,59.2s7.3-40.7,13.6-75.8
			C466.5,358.4,465.8,339.1,465.8,339.1z"/>
		<path class="st2" d="M468,344.6c0,0,1.7,15.8-5.7,46.8c0,0,5.7-22.6,6.6-33.8S468,344.6,468,344.6z"/>
		<path d="M362.5,507.1c-0.2,0.8-0.5,1.4-1,1.9c7.8,2.2,17.5-11.9,17.5-11.9S368.7,508.5,362.5,507.1z"/>
		<path d="M458.8,481.1c-0.2,0.8-0.5,1.4-1,1.9c7.8,2.2,17.5-11.9,17.5-11.9S465,482.4,458.8,481.1z"/>
		<path d="M426.8,533.2c-0.4-15.5,10.7-26.2,10.7-26.2s-10.7,9.9-12.3,22.1c-1.3,10.8,1.3,16.2,7.9,20.4
			C430.6,547.4,427.1,542.9,426.8,533.2z"/>
		<path d="M430.7,520.8c0,0-3.8,9.8-1.5,18.2c2.2,8.4,4,8.5,4,8.5s-5.2-6.3-3.8-17.6S430.7,520.8,430.7,520.8z"/>
		<path class="st2" d="M504.7,463c0,0,79.5-23.2,99.5-127.1c0,0-4.4,47.3-30.5,77C542.8,451.9,504.7,463,504.7,463z"/>
	</g>
</g>
</svg>
